# xmcd
#
# Track frame offsets:
#	150
#	16281
#	34235
#	47407
#	62272
#	78917
#	90836
#	107135
#	122143
#	136729
#	151373
#	167722
#	184713
#	199392
#	216868
#	234446
#	248608
#	262796
#	280589
#	300660
#	316596
#	333374
#
# Disc length: 4653 seconds
#
# Revision: 3
# Processed by: cddbd v1.5.2PL0 Copyright (c) Steve Scherf et al.
# Submitted via: EasyCDDAExtractor 11.5.0.1
#
DISCID=11122b16
DTITLE=Various Artist - NCT 065
DYEAR=2004
DGENRE=Country
TTITLE0=Toby Keith - Stays In Mexico
TTITLE1=Kenny Chesney - Woman With You
TTITLE2=LeAnn Rimes - Nothin' Bout Love Makes Sense
TTITLE3=Jimmy Buffett ft. Martina McBride - Trip Around The Sun
TTITLE4=Reba McEntire - He Get's That From Me
TTITLE5=Josh Gracin - Nothin' To Lose
TTITLE6=Rachel Proctor - Where I Belong
TTITLE7=Travis Tritt ft. John Mellencamp - What Say You
TTITLE8=Brad Cotter - Can't Tell Me Nothing
TTITLE9=George Canyon - I'll Never Do Better Than You
TTITLE10=David Lee Murphy - Inspiration
TTITLE11=Los Lonely Boys - Heaven
TTITLE12=Dusty Drake - I Am The Working Man
TTITLE13=Charlie Robison - New Year's Day
TTITLE14=Joe Diffie - If I Could Only Bring You Back
TTITLE15=The Charlie Daniels Band - The Intimidator
TTITLE16=Catherine Britt - The Upside Of Being Down
TTITLE17=Pat Green - Don't Break My Heart Again
TTITLE18=Robert Earl Keen - Out Here In The Middle
TTITLE19=Carolina Rain - I Ain't Scared
TTITLE20=Billy Dean - Let Them Be Little
TTITLE21=Brad Paisley - Mud On The Tires
EXTD=
EXTT0=
EXTT1=
EXTT2=
EXTT3=
EXTT4=
EXTT5=
EXTT6=
EXTT7=
EXTT8=
EXTT9=
EXTT10=
EXTT11=
EXTT12=
EXTT13=
EXTT14=
EXTT15=
EXTT16=
EXTT17=
EXTT18=
EXTT19=
EXTT20=
EXTT21=
PLAYORDER=
